{
    "asset": {
        "version": "2.0",
        "generator": "Open Asset Import Library (assimp v5.2.cf7d3637)"
    },
    "extensionsUsed": [
        "KHR_materials_volume",
        "FB_ngon_encoding"
    ],
    "accessors": [
        {
            "bufferView": 0,
            "byteOffset": 0,
            "componentType": 5126,
            "count": 361548,
            "type": "VEC3",
            "max": [
                0.8728500008583069,
                0.26965099573135378,
                0.9988549947738648
            ],
            "min": [
                -0.8692309856414795,
                -0.27784299850463869,
                -0.9906129837036133
            ]
        },
        {
            "bufferView": 1,
            "byteOffset": 0,
            "componentType": 5126,
            "count": 361548,
            "type": "VEC3",
            "max": [
                0.9999972581863403,
                0.9999998211860657,
                0.9999844431877136
            ],
            "min": [
                -0.9999988079071045,
                -0.9999971389770508,
                -0.9999954700469971
            ]
        },
        {
            "bufferView": 2,
            "byteOffset": 0,
            "componentType": 5126,
            "count": 361548,
            "type": "VEC2",
            "max": [
                1.0,
                1.0
            ],
            "min": [
                0.000014483928680419922,
                0.00004202127456665039
            ]
        },
        {
            "bufferView": 3,
            "byteOffset": 0,
            "componentType": 5125,
            "count": 361548,
            "type": "SCALAR",
            "max": [
                361547
            ],
            "min": [
                0
            ]
        }
    ],
    "buffers": [
        {
            "byteLength": 13015728,
            "uri": "result.bin"
        }
    ],
    "bufferViews": [
        {
            "buffer": 0,
            "byteOffset": 0,
            "byteLength": 4338576,
            "target": 34962
        },
        {
            "buffer": 0,
            "byteOffset": 4338576,
            "byteLength": 4338576,
            "target": 34962
        },
        {
            "buffer": 0,
            "byteOffset": 8677152,
            "byteLength": 2892384,
            "target": 34962
        },
        {
            "buffer": 0,
            "byteOffset": 11569536,
            "byteLength": 1446192,
            "target": 34963
        }
    ],
    "images": [
        {
            "uri": "data:image/jpeg;base64,"
        }
    ],
    "materials": [
        {
            "name": "material",
            "pbrMetallicRoughness": {
                "baseColorTexture": {
                    "index": 0
                },
                "metallicFactor": 0.0,
                "roughnessFactor": 0.800000011920929
            },
            "doubleSided": true
        },
        {
            "name": "material"
        }
    ],
    "meshes": [
        {
            "name": "meshes[0]",
            "primitives": [
                {
                    "mode": 4,
                    "material": 0,
                    "indices": 3,
                    "attributes": {
                        "POSITION": 0,
                        "NORMAL": 1,
                        "TEXCOORD_0": 2
                    }
                }
            ]
        }
    ],
    "nodes": [
        {
            "name": "nodes[0]",
            "mesh": 0
        }
    ],
    "samplers": [
        {
            "magFilter": 9729,
            "minFilter": 9987
        }
    ],
    "scenes": [
        {
            "nodes": [
                0
            ]
        }
    ],
    "textures": [
        {
            "source": 0,
            "sampler": 0
        }
    ],
    "scene": 0
}